<?xml version="1.0" encoding="UTF-8" standalone="no"?>
<!-- Created with Inkscape (http://www.inkscape.org/) -->

<svg
   width="100"
   height="100"
   viewBox="0 0 26.458333 26.458333"
   version="1.1"
   id="svg1"
   xml:space="preserve"
   inkscape:version="1.3 (0e150ed6c4, 2023-07-21)"
   sodipodi:docname="10 node.svg"
   xmlns:inkscape="http://www.inkscape.org/namespaces/inkscape"
   xmlns:sodipodi="http://sodipodi.sourceforge.net/DTD/sodipodi-0.dtd"
   xmlns:xlink="http://www.w3.org/1999/xlink"
   xmlns="http://www.w3.org/2000/svg"
   xmlns:svg="http://www.w3.org/2000/svg"><sodipodi:namedview
     id="namedview1"
     pagecolor="#505050"
     bordercolor="#eeeeee"
     borderopacity="1"
     inkscape:showpageshadow="0"
     inkscape:pageopacity="0"
     inkscape:pagecheckerboard="0"
     inkscape:deskcolor="#505050"
     inkscape:document-units="mm"
     inkscape:zoom="3.7342142"
     inkscape:cx="26.645499"
     inkscape:cy="12.184625"
     inkscape:window-width="1920"
     inkscape:window-height="947"
     inkscape:window-x="0"
     inkscape:window-y="0"
     inkscape:window-maximized="1"
     inkscape:current-layer="layer1" /><defs
     id="defs1"><linearGradient
       x1="186.33657"
       y1="47.785755"
       x2="76.030266"
       y2="245.27126"
       id="linearGradient-1"
       gradientTransform="scale(0.93681241,1.0674496)"
       gradientUnits="userSpaceOnUse"><stop
         stop-color="#41873F"
         offset="0%"
         id="stop1" /><stop
         stop-color="#418B3D"
         offset="32.88%"
         id="stop2" /><stop
         stop-color="#419637"
         offset="63.52%"
         id="stop3" /><stop
         stop-color="#3FA92D"
         offset="93.19%"
         id="stop4" /><stop
         stop-color="#3FAE2A"
         offset="100%"
         id="stop5" /></linearGradient><path
       d="M134.922587,1.83244962 C130.579003,-0.610816541 125.420997,-0.610816541 121.077412,1.83244962 L6.78685046,67.8006362 C2.44326617,70.2439024 0,74.8589606 0,79.745493 L0,211.95334 C0,216.839873 2.71474019,221.454931 6.78685046,223.898197 L121.077412,289.866385 C125.420997,292.309649 130.579003,292.309649 134.922587,289.866385 L249.213148,223.898197 C253.556733,221.454931 256,216.839873 256,211.95334 L256,79.745493 C256,74.8589606 253.28526,70.2439024 249.213148,67.8006362 L134.922587,1.83244962 L134.922587,1.83244962 Z"
       id="path-2" /><linearGradient
       x1="119.41458"
       y1="149.30798"
       x2="432.34531"
       y2="-48.957201"
       id="linearGradient-4"
       gradientTransform="scale(0.92657495,1.0792435)"
       gradientUnits="userSpaceOnUse"><stop
         stop-color="#41873F"
         offset="13.76%"
         id="stop6" /><stop
         stop-color="#54A044"
         offset="40.32%"
         id="stop7" /><stop
         stop-color="#66B848"
         offset="71.36%"
         id="stop8" /><stop
         stop-color="#6CC04A"
         offset="90.81%"
         id="stop9" /></linearGradient><path
       d="M134.922587,1.83244962 C130.579003,-0.610816541 125.420997,-0.610816541 121.077412,1.83244962 L6.78685046,67.8006362 C2.44326617,70.2439024 0,74.8589606 0,79.745493 L0,211.95334 C0,216.839873 2.71474019,221.454931 6.78685046,223.898197 L121.077412,289.866385 C125.420997,292.309649 130.579003,292.309649 134.922587,289.866385 L249.213148,223.898197 C253.556733,221.454931 256,216.839873 256,211.95334 L256,79.745493 C256,74.8589606 253.28526,70.2439024 249.213148,67.8006362 L134.922587,1.83244962 L134.922587,1.83244962 Z"
       id="path-5" /><linearGradient
       x1="-4.4905091"
       y1="134.80269"
       x2="281.0053"
       y2="134.80269"
       id="linearGradient-7"
       gradientTransform="scale(0.92431102,1.0818869)"
       gradientUnits="userSpaceOnUse"><stop
         stop-color="#6CC04A"
         offset="9.191646%"
         id="stop10" /><stop
         stop-color="#66B848"
         offset="28.64%"
         id="stop11" /><stop
         stop-color="#54A044"
         offset="59.68%"
         id="stop12" /><stop
         stop-color="#41873F"
         offset="86.24%"
         id="stop13" /></linearGradient></defs><g
     inkscape:label="Camada 1"
     inkscape:groupmode="layer"
     id="layer1"><g
       id="g7"
       transform="matrix(0.32567837,0,0,0.32567837,-13.195075,14.176473)"><g
         id="g17"
         transform="matrix(0.26458333,0,0,0.26458333,47.269337,-41.498042)"><path
           d="m 134.92259,1.8324496 c -4.34359,-2.44326614 -9.50159,-2.44326614 -13.84518,0 L 6.7868505,67.800636 C 2.4432662,70.243902 0,74.858961 0,79.745493 V 211.95334 c 0,4.88653 2.7147402,9.50159 6.7868505,11.94486 L 121.07741,289.86638 c 4.34359,2.44327 9.50159,2.44327 13.84518,0 L 249.21315,223.8982 C 253.55673,221.45493 256,216.83987 256,211.95334 V 79.745493 c 0,-4.886532 -2.71474,-9.501591 -6.78685,-11.944857 z"
           fill="url(#linearGradient-1)"
           id="path13"
           style="fill:url(#linearGradient-1)" /><g
           id="g14"><mask
             id="mask-3"
             fill="#ffffff"><use
               xlink:href="#path-2"
               id="use13" /></mask><g
             id="g13" /><path
             d="M 249.48462,67.800636 134.65111,1.8324496 c -1.08589,-0.542948 -2.44326,-1.08589605 -3.52916,-1.35737006 L 2.4432662,220.91198 c 1.085896,1.35737 2.4432662,2.44327 3.8006362,3.25769 L 121.07741,290.13786 c 3.25769,1.90032 7.05833,2.44326 10.58749,1.35737 L 252.47084,70.515376 c -0.81442,-1.085896 -1.90032,-1.900318 -2.98622,-2.71474 z"
             fill="url(#linearGradient-4)"
             mask="url(#mask-3)"
             id="path14"
             style="fill:url(#linearGradient-4)" /></g><g
           id="g16"><mask
             id="mask-6"
             fill="#ffffff"><use
               xlink:href="#path-5"
               id="use14" /></mask><g
             id="g15" /><path
             d="m 249.7561,223.89819 c 3.25769,-1.90031 5.70095,-5.158 6.78685,-8.68716 L 130.579,0.20360479 c -3.25768,-0.54294817 -6.78685,-0.2714742 -9.77306,1.62884401 L 6.7868505,67.529161 129.76458,291.7667 c 1.62884,-0.27147 3.52916,-0.81442 5.15801,-1.62884 z"
             fill="url(#linearGradient-7)"
             mask="url(#mask-6)"
             id="path15"
             style="fill:url(#linearGradient-7)" /></g></g><path
         d="m 81.135998,30.56864 c -0.922666,0 -1.783818,-0.246044 -2.583462,-0.67662 l -8.18096,-4.85937 c -1.230221,-0.676622 -0.61511,-0.922666 -0.246045,-1.045687 1.660798,-0.553598 1.968351,-0.676621 3.69066,-1.660797 0.184532,-0.123023 0.430576,-0.06152 0.61511,0.06151 l 6.274122,3.75217 c 0.246042,0.123022 0.553598,0.123022 0.73813,0 L 105.98645,11.930808 c 0.24603,-0.123023 0.36905,-0.369065 0.36905,-0.67662 v -28.356567 c 0,-0.307555 -0.123,-0.553599 -0.36905,-0.676622 L 81.443553,-31.926528 c -0.246043,-0.123014 -0.553597,-0.123014 -0.73813,0 l -24.542888,14.147527 c -0.246043,0.123015 -0.369065,0.430577 -0.369065,0.676622 v 28.356567 c 0,0.246044 0.123014,0.553598 0.369065,0.67662 l 6.704698,3.875194 c 3.629149,1.845328 5.905057,-0.307556 5.905057,-2.460441 v -27.9875 c 0,-0.369065 0.307554,-0.738132 0.738131,-0.738132 h 3.13706 c 0.369068,0 0.738133,0.307555 0.738133,0.738132 v 27.9875 c 0,4.85937 -2.644973,7.688873 -7.258297,7.688873 -1.414753,0 -2.52195,0 -5.659013,-1.537772 l -6.458653,-3.69066 c -1.599286,-0.922665 -2.583462,-2.644974 -2.583462,-4.490303 v -28.356568 c 0,-1.845329 0.984176,-3.567637 2.583462,-4.490302 l 24.542885,-14.209038 c 1.537774,-0.861155 3.629151,-0.861155 5.166926,0 l 24.542888,14.209038 c 1.59928,0.922665 2.58347,2.644973 2.58347,4.490302 v 28.356568 c 0,1.845329 -0.98419,3.567638 -2.58347,4.490303 L 83.719462,30.015041 c -0.799645,0.369066 -1.722311,0.553599 -2.583464,0.553599 z m 7.565851,-19.498985 c -10.764423,0 -12.978817,-4.9208796 -12.978817,-9.103629 0,-0.3690652 0.307554,-0.7381303 0.738131,-0.7381303 h 3.198571 c 0.369066,0 0.676621,0.2460429 0.676621,0.6151096 0.49209,3.2600819 1.906842,4.8593683 8.427006,4.8593683 5.166924,0 7.38132,-1.1687079 7.38132,-3.9367031 0,-1.5992867 -0.615111,-2.76799558 -8.673052,-3.56763768 C 80.766934,-1.4785888 76.584187,-2.9548509 76.584187,-8.3063061 c 0,-4.9823909 4.182747,-7.9349189 11.194999,-7.9349189 7.873407,0 11.748602,2.706484 12.240694,8.6115369 0,0.184534 -0.0615,0.369067 -0.184542,0.553599 -0.12301,0.123031 -0.30755,0.246043 -0.49209,0.246043 h -3.198567 c -0.307557,0 -0.615111,-0.246043 -0.676622,-0.553597 -0.738131,-3.3831049 -2.64497,-4.4903029 -7.688873,-4.4903029 -5.659013,0 -6.335633,1.9683519 -6.335633,3.4446159 0,1.78382 0.799644,2.3374194 8.427007,3.3215957 7.565848,0.9841748 11.13349,2.3989281 11.13349,7.688872 -0.0615,5.412967 -4.490302,8.4885174 -12.302201,8.4885174 z"
         fill="#539e43"
         id="path1-6"
         style="fill:#ffffff;stroke-width:0.232108" /></g></g></svg>
