<?xml version="1.0" encoding="UTF-8" standalone="no"?>
<!-- Created with Inkscape (http://www.inkscape.org/) -->

<svg
   width="100"
   height="100"
   viewBox="0 0 26.458333 26.458333"
   version="1.1"
   id="svg1"
   xml:space="preserve"
   inkscape:version="1.3 (0e150ed6c4, 2023-07-21)"
   sodipodi:docname="12 electron.svg"
   xmlns:inkscape="http://www.inkscape.org/namespaces/inkscape"
   xmlns:sodipodi="http://sodipodi.sourceforge.net/DTD/sodipodi-0.dtd"
   xmlns="http://www.w3.org/2000/svg"
   xmlns:svg="http://www.w3.org/2000/svg"><sodipodi:namedview
     id="namedview1"
     pagecolor="#505050"
     bordercolor="#eeeeee"
     borderopacity="1"
     inkscape:showpageshadow="0"
     inkscape:pageopacity="0"
     inkscape:pagecheckerboard="0"
     inkscape:deskcolor="#505050"
     inkscape:document-units="mm"
     inkscape:zoom="2.6404882"
     inkscape:cx="118.34933"
     inkscape:cy="36.167554"
     inkscape:window-width="1920"
     inkscape:window-height="947"
     inkscape:window-x="0"
     inkscape:window-y="0"
     inkscape:window-maximized="1"
     inkscape:current-layer="layer1" /><defs
     id="defs1" /><g
     inkscape:label="Camada 1"
     inkscape:groupmode="layer"
     id="layer1"><circle
       style="fill:#ffffff;fill-opacity:1;stroke:none;stroke-width:2.16733;stroke-linecap:round;stroke-linejoin:round"
       id="path5"
       cx="13.229167"
       cy="13.229167"
       r="12.567708" /><g
       style="fill:none;stroke:#2dd0ed;stroke-linejoin:round;stroke-linecap:round;stroke-width:5.12162582;stroke-dasharray:none;stroke-opacity:1"
       id="g7"
       transform="matrix(0.05857515,0,0,0.05857515,2.9046962,1.6791562)"><g
         fill="#2dd0ed"
         id="g4"
         style="stroke:#2dd0ed;stroke-linejoin:round;stroke-linecap:round;stroke-width:5.12162582;stroke-dasharray:none;stroke-opacity:1"><path
           d="m 124.561,82.06 c -49.756,-9.062 -89.097,0.425 -104.776,27.579 -11.7,20.263 -8.36,47.133 8.106,75.854 a 5.102,5.102 0 0 0 6.967,1.89 5.107,5.107 0 0 0 1.89,-6.968 C 21.914,154.546 19.023,131.357 28.623,114.741 41.646,92.183 76.733,83.721 122.729,92.1 a 5.105,5.105 0 0 0 5.976,-6.103 5.105,5.105 0 0 0 -4.149,-3.936 z M 53.765,220.4 c 20.117,22.11 46.255,42.847 76.064,60.059 72.173,41.67 149.009,52.808 186.875,26.987 a 5.103,5.103 0 0 0 -5.747,-8.432 c -33.892,23.11 -106.88,12.529 -176.025,-27.393 -28.921,-16.699 -54.229,-36.777 -73.618,-58.086 a 5.108,5.108 0 0 0 -5.538,-1.437 5.103,5.103 0 0 0 -2.011,8.302 z"
           id="path1"
           style="stroke:#2dd0ed;stroke-linejoin:round;stroke-linecap:round;stroke-width:5.12162582;stroke-dasharray:none;stroke-opacity:1" /><path
           d="m 304.629,214.194 c 32.578,-38.486 43.955,-77.197 28.31,-104.297 -11.513,-19.94 -35.854,-30.468 -68.198,-30.888 a 5.106,5.106 0 0 0 -5.171,5.034 5.092,5.092 0 0 0 3.087,4.756 5.104,5.104 0 0 0 1.948,0.415 c 29.091,0.376 50.063,9.448 59.497,25.786 12.993,22.51 2.851,57.031 -27.261,92.603 a 5.098,5.098 0 0 0 0.535,7.264 5.11,5.11 0 0 0 7.253,-0.673 z M 220.903,83.76 c -29.458,6.313 -60.81,18.652 -90.918,36.035 C 55.474,162.813 6.87,226.24 13.623,272.236 a 5.102,5.102 0 1 0 10.093,-1.484 C 17.725,229.917 63.794,169.79 135.083,128.633 c 29.209,-16.865 59.57,-28.809 87.959,-34.898 a 5.104,5.104 0 0 0 -2.139,-9.975 z"
           id="path2-6"
           style="stroke:#2dd0ed;stroke-linejoin:round;stroke-linecap:round;stroke-width:5.12162582;stroke-dasharray:none;stroke-opacity:1" /><path
           d="m 100.195,304.121 c 17.041,47.559 44.903,76.846 76.241,76.846 22.851,0 43.994,-15.576 60.483,-43.003 a 5.109,5.109 0 0 0 0.68,-3.919 5.1,5.1 0 0 0 -8.096,-2.877 c -0.54,0.419 -0.99,0.941 -1.324,1.537 -14.82,24.649 -33.023,38.062 -51.743,38.062 -26.026,0 -50.884,-26.123 -66.631,-70.088 a 5.115,5.115 0 0 0 -2.611,-2.972 5.12,5.12 0 0 0 -1.953,-0.505 5.109,5.109 0 0 0 -5.375,4.929 5.105,5.105 0 0 0 0.334,1.99 z m 155.596,-9.307 c 8.818,-28.173 13.55,-60.683 13.55,-94.56 0,-84.522 -29.58,-157.388 -71.719,-176.099 a 5.103,5.103 0 0 0 -4.141,9.326 c 37.583,16.69 65.66,85.84 65.66,166.773 0,32.861 -4.59,64.346 -13.086,91.514 a 5.092,5.092 0 0 0 0.28,3.953 5.103,5.103 0 0 0 9.456,-0.907 z m 96.089,-4.995 a 24.419,24.419 0 1 0 -48.837,10e-4 24.419,24.419 0 0 0 48.837,-10e-4 z m -10.205,0 a 14.217,14.217 0 0 1 -14.214,14.214 14.213,14.213 0 1 1 14.214,-14.214 z M 25.059,314.238 A 24.416,24.416 0 0 0 49.478,289.819 24.417,24.417 0 0 0 25.058,265.4 24.417,24.417 0 0 0 0.64,289.819 24.417,24.417 0 0 0 25.059,314.238 Z m 0,-10.205 a 14.217,14.217 0 1 1 0,-28.434 14.217,14.217 0 0 1 0,28.434 z"
           id="path3"
           style="stroke:#2dd0ed;stroke-linejoin:round;stroke-linecap:round;stroke-width:5.12162582;stroke-dasharray:none;stroke-opacity:1" /><path
           d="m 176.436,49.063 a 24.415,24.415 0 0 0 22.56,-15.075 24.422,24.422 0 0 0 -22.56,-33.763 24.417,24.417 0 0 0 -17.267,41.685 24.418,24.418 0 0 0 17.267,7.152 z m 0,-10.206 a 14.217,14.217 0 0 1 -13.132,-8.774 14.201,14.201 0 0 1 0,-10.879 14.207,14.207 0 0 1 7.692,-7.692 14.216,14.216 0 1 1 5.44,27.35 z m 3.73,178.672 a 17.677,17.677 0 0 1 -13.306,-2.421 17.67,17.67 0 0 1 5.845,-32.125 17.674,17.674 0 0 1 20.738,13.597 17.674,17.674 0 0 1 -13.277,20.944 z"
           id="path4-2"
           style="stroke:#2dd0ed;stroke-linejoin:round;stroke-linecap:round;stroke-width:5.12162582;stroke-dasharray:none;stroke-opacity:1" /></g></g></g></svg>
