<?xml version="1.0" encoding="UTF-8" standalone="no"?>
<!-- Created with Inkscape (http://www.inkscape.org/) -->

<svg
   width="100"
   height="100"
   viewBox="0 0 26.458333 26.458333"
   version="1.1"
   id="svg1"
   xml:space="preserve"
   inkscape:version="1.3 (0e150ed6c4, 2023-07-21)"
   sodipodi:docname="13 dart.svg"
   xmlns:inkscape="http://www.inkscape.org/namespaces/inkscape"
   xmlns:sodipodi="http://sodipodi.sourceforge.net/DTD/sodipodi-0.dtd"
   xmlns="http://www.w3.org/2000/svg"
   xmlns:svg="http://www.w3.org/2000/svg"><sodipodi:namedview
     id="namedview1"
     pagecolor="#505050"
     bordercolor="#eeeeee"
     borderopacity="1"
     inkscape:showpageshadow="0"
     inkscape:pageopacity="0"
     inkscape:pagecheckerboard="0"
     inkscape:deskcolor="#505050"
     inkscape:document-units="mm"
     inkscape:zoom="5.2809764"
     inkscape:cx="34.936721"
     inkscape:cy="48.381204"
     inkscape:window-width="1920"
     inkscape:window-height="947"
     inkscape:window-x="0"
     inkscape:window-y="0"
     inkscape:window-maximized="1"
     inkscape:current-layer="layer1" /><defs
     id="defs1"><linearGradient
   x1="186.33657"
   y1="47.785755"
   x2="76.030266"
   y2="245.27126"
   id="linearGradient-1"
   gradientTransform="scale(0.93681241,1.0674496)"
   gradientUnits="userSpaceOnUse"><stop
     stop-color="#41873F"
     offset="0%"
     id="stop1" /><stop
     stop-color="#418B3D"
     offset="32.88%"
     id="stop2" /><stop
     stop-color="#419637"
     offset="63.52%"
     id="stop3" /><stop
     stop-color="#3FA92D"
     offset="93.19%"
     id="stop4" /><stop
     stop-color="#3FAE2A"
     offset="100%"
     id="stop5" /></linearGradient><path
   d="M134.922587,1.83244962 C130.579003,-0.610816541 125.420997,-0.610816541 121.077412,1.83244962 L6.78685046,67.8006362 C2.44326617,70.2439024 0,74.8589606 0,79.745493 L0,211.95334 C0,216.839873 2.71474019,221.454931 6.78685046,223.898197 L121.077412,289.866385 C125.420997,292.309649 130.579003,292.309649 134.922587,289.866385 L249.213148,223.898197 C253.556733,221.454931 256,216.839873 256,211.95334 L256,79.745493 C256,74.8589606 253.28526,70.2439024 249.213148,67.8006362 L134.922587,1.83244962 L134.922587,1.83244962 Z"
   id="path-2" /><linearGradient
   x1="119.41458"
   y1="149.30798"
   x2="432.34531"
   y2="-48.957201"
   id="linearGradient-4"
   gradientTransform="scale(0.92657495,1.0792435)"
   gradientUnits="userSpaceOnUse"><stop
     stop-color="#41873F"
     offset="13.76%"
     id="stop6" /><stop
     stop-color="#54A044"
     offset="40.32%"
     id="stop7" /><stop
     stop-color="#66B848"
     offset="71.36%"
     id="stop8" /><stop
     stop-color="#6CC04A"
     offset="90.81%"
     id="stop9" /></linearGradient><path
   d="M134.922587,1.83244962 C130.579003,-0.610816541 125.420997,-0.610816541 121.077412,1.83244962 L6.78685046,67.8006362 C2.44326617,70.2439024 0,74.8589606 0,79.745493 L0,211.95334 C0,216.839873 2.71474019,221.454931 6.78685046,223.898197 L121.077412,289.866385 C125.420997,292.309649 130.579003,292.309649 134.922587,289.866385 L249.213148,223.898197 C253.556733,221.454931 256,216.839873 256,211.95334 L256,79.745493 C256,74.8589606 253.28526,70.2439024 249.213148,67.8006362 L134.922587,1.83244962 L134.922587,1.83244962 Z"
   id="path-5" /><linearGradient
   x1="-4.4905091"
   y1="134.80269"
   x2="281.0053"
   y2="134.80269"
   id="linearGradient-7"
   gradientTransform="scale(0.92431102,1.0818869)"
   gradientUnits="userSpaceOnUse"><stop
     stop-color="#6CC04A"
     offset="9.191646%"
     id="stop10" /><stop
     stop-color="#66B848"
     offset="28.64%"
     id="stop11" /><stop
     stop-color="#54A044"
     offset="59.68%"
     id="stop12" /><stop
     stop-color="#41873F"
     offset="86.24%"
     id="stop13" /></linearGradient>&#10;	&#10;	&#10;</defs><g
     inkscape:label="Camada 1"
     inkscape:groupmode="layer"
     id="layer1"><g
       id="g10"
       transform="matrix(0.18461562,0,0,0.18461562,0.31438097,0.55530435)">&#10;		<path
   fill="#01579b"
   d="M 29.64,108.94 6.36,85.66 C 3.6,82.82 1.88,78.82 1.88,74.91 1.88,73.1 2.9,70.27 3.67,68.64 L 25.16,23.87 Z"
   id="path4" />&#10;		<path
   fill="#40c4ff"
   d="M 109.34,28.35 86.06,5.07 C 84.03,3.03 79.79,0.59 76.21,0.59 c -3.08,0 -6.1,0.62 -8.06,1.79 L 25.17,23.87 Z"
   id="path5" />&#10;		<polygon
   fill="#40c4ff"
   points="71.73,99.09 33.23,112.52 57.4,136.7 113.82,136.7 113.82,112.52 "
   id="polygon5" />&#10;		<path
   fill="#29b6f6"
   d="m 25.17,96.41 c 0,7.18 0.9,8.95 4.48,12.54 l 3.58,3.58 h 80.59 L 74.42,67.76 25.17,23.88 Z"
   id="path6" />&#10;		<path
   fill="#01579b"
   d="M 96.8,23.87 H 25.16 l 88.65,88.65 h 24.18 V 57 L 109.34,28.35 c -4.02,-4.04 -7.6,-4.48 -12.54,-4.48 z"
   id="path7" />&#10;		<path
   opacity="0.2"
   fill="#ffffff"
   enable-background="new    "
   d="m 30.54,109.84 c -3.58,-3.6 -4.48,-7.14 -4.48,-13.43 V 24.77 l -0.9,-0.9 V 96.4 c 0.01,6.3 0.01,8.04 5.38,13.44 l 2.69,2.69 v 0 z"
   id="path8" />&#10;		<polygon
   opacity="0.2"
   fill="#263238"
   enable-background="new    "
   points="112.92,111.63 113.82,112.52 138,112.52 138,57.01 137.1,56.11 137.1,111.63 "
   id="polygon8" />&#10;		<path
   opacity="0.2"
   fill="#ffffff"
   enable-background="new    "
   d="M 109.34,28.35 C 104.9,23.91 101.26,23.87 95.91,23.87 H 25.17 l 0.9,0.9 h 69.85 c 2.66,0 9.41,-0.45 13.42,3.58 z"
   id="path9" />&#10;&#10;			<radialGradient
   id="SVGID_1_"
   cx="69.955002"
   cy="60.886398"
   r="68.065002"
   gradientTransform="matrix(1,0,0,-1,0,129.5328)"
   gradientUnits="userSpaceOnUse">&#10;			<stop
   offset="0"
   style="stop-color:#FFFFFF;stop-opacity:0.1"
   id="stop9-0" />&#10;			<stop
   offset="1"
   style="stop-color:#FFFFFF;stop-opacity:0"
   id="stop10-6" />&#10;		</radialGradient>&#10;		<path
   opacity="0.2"
   fill="url(#SVGID_1_)"
   enable-background="new    "
   d="M 137.1,56.11 109.34,28.35 86.06,5.07 C 84.03,3.03 79.79,0.59 76.21,0.59 c -3.08,0 -6.1,0.62 -8.06,1.79 L 25.17,23.87 3.68,68.64 c -0.77,1.63 -1.79,4.46 -1.79,6.27 0,3.91 1.72,7.91 4.48,10.75 l 21.46,21.3 c 0.51,0.63 1.11,1.27 1.83,1.98 l 0.9,0.9 2.69,2.69 23.28,23.28 0.9,0.9 h 55.52 0.9 v -24.18 h 24.18 v -0.06 -55.46 z"
   id="path10"
   style="fill:url(#SVGID_1_)" />&#10;	</g></g></svg>
