<?xml version="1.0" encoding="UTF-8" standalone="no"?>
<!-- Created with Inkscape (http://www.inkscape.org/) -->

<svg
   width="100"
   height="100"
   viewBox="0 0 26.458333 26.458333"
   version="1.1"
   id="svg1"
   xml:space="preserve"
   inkscape:version="1.3 (0e150ed6c4, 2023-07-21)"
   sodipodi:docname="15 aws.svg"
   xmlns:inkscape="http://www.inkscape.org/namespaces/inkscape"
   xmlns:sodipodi="http://sodipodi.sourceforge.net/DTD/sodipodi-0.dtd"
   xmlns="http://www.w3.org/2000/svg"
   xmlns:svg="http://www.w3.org/2000/svg"><sodipodi:namedview
     id="namedview1"
     pagecolor="#505050"
     bordercolor="#eeeeee"
     borderopacity="1"
     inkscape:showpageshadow="0"
     inkscape:pageopacity="0"
     inkscape:pagecheckerboard="0"
     inkscape:deskcolor="#505050"
     inkscape:document-units="mm"
     inkscape:zoom="3.7342142"
     inkscape:cx="24.770941"
     inkscape:cy="44.587694"
     inkscape:window-width="1920"
     inkscape:window-height="947"
     inkscape:window-x="0"
     inkscape:window-y="0"
     inkscape:window-maximized="1"
     inkscape:current-layer="layer1" /><defs
     id="defs1"><linearGradient
   x1="186.33657"
   y1="47.785755"
   x2="76.030266"
   y2="245.27126"
   id="linearGradient-1"
   gradientTransform="scale(0.93681241,1.0674496)"
   gradientUnits="userSpaceOnUse"><stop
     stop-color="#41873F"
     offset="0%"
     id="stop1" /><stop
     stop-color="#418B3D"
     offset="32.88%"
     id="stop2" /><stop
     stop-color="#419637"
     offset="63.52%"
     id="stop3" /><stop
     stop-color="#3FA92D"
     offset="93.19%"
     id="stop4" /><stop
     stop-color="#3FAE2A"
     offset="100%"
     id="stop5" /></linearGradient><path
   d="M134.922587,1.83244962 C130.579003,-0.610816541 125.420997,-0.610816541 121.077412,1.83244962 L6.78685046,67.8006362 C2.44326617,70.2439024 0,74.8589606 0,79.745493 L0,211.95334 C0,216.839873 2.71474019,221.454931 6.78685046,223.898197 L121.077412,289.866385 C125.420997,292.309649 130.579003,292.309649 134.922587,289.866385 L249.213148,223.898197 C253.556733,221.454931 256,216.839873 256,211.95334 L256,79.745493 C256,74.8589606 253.28526,70.2439024 249.213148,67.8006362 L134.922587,1.83244962 L134.922587,1.83244962 Z"
   id="path-2" /><linearGradient
   x1="119.41458"
   y1="149.30798"
   x2="432.34531"
   y2="-48.957201"
   id="linearGradient-4"
   gradientTransform="scale(0.92657495,1.0792435)"
   gradientUnits="userSpaceOnUse"><stop
     stop-color="#41873F"
     offset="13.76%"
     id="stop6" /><stop
     stop-color="#54A044"
     offset="40.32%"
     id="stop7" /><stop
     stop-color="#66B848"
     offset="71.36%"
     id="stop8" /><stop
     stop-color="#6CC04A"
     offset="90.81%"
     id="stop9" /></linearGradient><path
   d="M134.922587,1.83244962 C130.579003,-0.610816541 125.420997,-0.610816541 121.077412,1.83244962 L6.78685046,67.8006362 C2.44326617,70.2439024 0,74.8589606 0,79.745493 L0,211.95334 C0,216.839873 2.71474019,221.454931 6.78685046,223.898197 L121.077412,289.866385 C125.420997,292.309649 130.579003,292.309649 134.922587,289.866385 L249.213148,223.898197 C253.556733,221.454931 256,216.839873 256,211.95334 L256,79.745493 C256,74.8589606 253.28526,70.2439024 249.213148,67.8006362 L134.922587,1.83244962 L134.922587,1.83244962 Z"
   id="path-5" /><linearGradient
   x1="-4.4905091"
   y1="134.80269"
   x2="281.0053"
   y2="134.80269"
   id="linearGradient-7"
   gradientTransform="scale(0.92431102,1.0818869)"
   gradientUnits="userSpaceOnUse"><stop
     stop-color="#6CC04A"
     offset="9.191646%"
     id="stop10" /><stop
     stop-color="#66B848"
     offset="28.64%"
     id="stop11" /><stop
     stop-color="#54A044"
     offset="59.68%"
     id="stop12" /><stop
     stop-color="#41873F"
     offset="86.24%"
     id="stop13" /></linearGradient>&#10;	&#10;	&#10;<linearGradient
   x1="122.89636"
   y1="246.97452"
   x2="154.97651"
   y2="258.53493"
   id="linearGradient-1-2"
   gradientTransform="scale(0.99998778,1.0000122)"
   gradientUnits="userSpaceOnUse"><stop
     stop-color="#000000"
     offset="0%"
     id="stop1-6" /><stop
     stop-color="#000000"
     stop-opacity="0"
     offset="100%"
     id="stop2-1" /></linearGradient>&#10;	&#10;	&#10;</defs><g
     inkscape:label="Camada 1"
     inkscape:groupmode="layer"
     id="layer1"><path
       class="st0"
       d="m 7.7448649,11.172662 c 0,0.309312 0.033439,0.560105 0.091958,0.74402 0.066878,0.183915 0.150476,0.38455 0.2675128,0.601904 0.041799,0.06688 0.058518,0.133756 0.058518,0.192275 0,0.0836 -0.050159,0.167195 -0.1588358,0.250793 l -0.5266658,0.35111 c -0.075238,0.05016 -0.1504759,0.07524 -0.2173541,0.07524 -0.083598,0 -0.1671955,-0.0418 -0.2507933,-0.117036 -0.1170369,-0.125397 -0.2173541,-0.259153 -0.3009519,-0.39291 -0.083598,-0.142116 -0.1671955,-0.300952 -0.259153,-0.493227 -0.6520625,0.7691 -1.4713204,1.153649 -2.4577739,1.153649 -0.7022211,0 -1.262326,-0.200634 -1.671955,-0.601903 -0.409629,-0.40127 -0.6186233,-0.936295 -0.6186233,-1.605077 0,-0.710581 0.2507932,-1.287406 0.7607395,-1.7221139 0.5099463,-0.4347083 1.1870881,-0.6520625 2.0481449,-0.6520625 0.2842323,0 0.5768244,0.025079 0.8861361,0.066878 0.3093117,0.041799 0.6269832,0.1086771 0.9613742,0.1839151 V 8.5978513 C 6.3571422,7.9625084 6.2233859,7.5194403 5.9642328,7.2602873 5.69672,7.0011343 5.2452922,6.8757376 4.6015895,6.8757376 c -0.2925921,0 -0.593544,0.033439 -0.9028557,0.1086771 -0.3093117,0.075238 -0.6102636,0.1671955 -0.9028557,0.2842324 -0.1337564,0.058518 -0.2340737,0.091958 -0.2925921,0.108677 -0.058518,0.01672 -0.1003173,0.025079 -0.1337564,0.025079 -0.1170369,0 -0.1755553,-0.083598 -0.1755553,-0.2591531 V 6.7336215 c 0,-0.1337564 0.01672,-0.2340737 0.058518,-0.2925922 C 2.2942916,6.3825109 2.3695296,6.3239925 2.4865664,6.2654741 2.7791586,6.1149981 3.1302691,5.9896015 3.5398981,5.8892842 3.949527,5.7806071 4.3842353,5.7304485 4.844023,5.7304485 c 0.9948132,0 1.7221136,0.2257139 2.190261,0.6771417 0.4597877,0.4514279 0.6938613,1.1369294 0.6938613,2.0565047 v 2.7085671 z m -3.3940687,1.270686 c 0.2758726,0 0.560105,-0.05016 0.8610569,-0.150476 C 5.512805,12.192555 5.7803178,12.008639 6.0060317,11.757846 6.1397881,11.599011 6.2401054,11.423455 6.290264,11.222821 6.340423,11.022186 6.373862,10.779753 6.373862,10.49552 V 10.14441 C 6.1314283,10.085891 5.8722753,10.035733 5.6047625,10.002293 5.3372497,9.9688544 5.0780967,9.9521348 4.8189436,9.9521348 c -0.5601049,0 -0.9697338,0.1086772 -1.2456064,0.3343912 -0.2758726,0.225714 -0.409629,0.543385 -0.409629,0.961374 0,0.392909 0.1003173,0.685502 0.3093117,0.886136 0.2006346,0.208994 0.4932267,0.309312 0.8777763,0.309312 z m 6.7128998,0.902856 c -0.150476,0 -0.250794,-0.02508 -0.317672,-0.0836 -0.06688,-0.05016 -0.125397,-0.167196 -0.175555,-0.326031 L 8.6059217,6.4744684 c -0.050159,-0.1671955 -0.075238,-0.2758725 -0.075238,-0.334391 0,-0.1337563 0.066878,-0.2089943 0.2006346,-0.2089943 h 0.8192579 c 0.1588357,0 0.2675128,0.025079 0.3260312,0.083598 0.066878,0.050159 0.1170369,0.1671955 0.1671956,0.3260313 l 1.404442,5.5341706 1.304125,-5.5341707 c 0.0418,-0.1671955 0.09196,-0.2758725 0.158836,-0.3260312 0.06688,-0.050159 0.183915,-0.083598 0.334391,-0.083598 h 0.668782 c 0.158836,0 0.267513,0.025079 0.334391,0.083598 0.06688,0.050159 0.125396,0.1671955 0.158836,0.3260312 l 1.320844,5.6010487 1.446241,-5.6010487 c 0.05016,-0.1671955 0.108677,-0.2758725 0.167196,-0.3260312 0.06688,-0.050159 0.175555,-0.083598 0.326031,-0.083598 h 0.777459 c 0.133756,0 0.208994,0.066878 0.208994,0.2089943 0,0.041799 -0.0084,0.083598 -0.01672,0.1337564 -0.0084,0.050159 -0.02508,0.1170369 -0.05852,0.2089944 l -2.014705,6.4621058 c -0.05016,0.167196 -0.108678,0.275873 -0.175556,0.326032 -0.06688,0.05016 -0.175555,0.0836 -0.317671,0.0836 H 15.35226 c -0.158836,0 -0.267513,-0.02508 -0.334391,-0.0836 -0.06688,-0.05852 -0.125396,-0.167196 -0.158836,-0.334391 L 13.563268,7.5445196 12.275863,12.928215 c -0.0418,0.167195 -0.09196,0.275872 -0.158836,0.334391 -0.06688,0.05852 -0.183915,0.0836 -0.334391,0.0836 z m 10.74231,0.225713 c -0.434708,0 -0.869416,-0.05016 -1.287405,-0.150476 -0.417989,-0.100317 -0.74402,-0.208994 -0.961374,-0.334391 -0.133756,-0.07524 -0.225714,-0.158835 -0.259153,-0.234073 -0.03344,-0.07524 -0.05016,-0.158836 -0.05016,-0.234074 v -0.426348 c 0,-0.175556 0.06688,-0.259153 0.192275,-0.259153 0.05016,0 0.100317,0.0084 0.150476,0.02508 0.05016,0.01672 0.125397,0.05016 0.208994,0.0836 0.284233,0.125396 0.593544,0.225714 0.919576,0.292592 0.334391,0.06688 0.660422,0.100317 0.994813,0.100317 0.526666,0 0.936295,-0.09196 1.220527,-0.275873 0.284232,-0.183915 0.434708,-0.451427 0.434708,-0.794178 0,-0.234074 -0.07524,-0.426349 -0.225714,-0.585184 -0.150475,-0.158836 -0.434708,-0.300952 -0.844337,-0.434709 L 21.087066,9.9688544 C 20.476802,9.7765796 20.025374,9.4923472 19.749502,9.1161574 19.473629,8.7483272 19.331513,8.3386983 19.331513,7.90399 c 0,-0.3511106 0.07524,-0.6604222 0.225714,-0.9279351 0.150476,-0.2675128 0.351111,-0.5015865 0.601904,-0.6855015 0.250793,-0.1922748 0.535025,-0.334391 0.869416,-0.4347083 0.334391,-0.1003173 0.685502,-0.1421162 1.053332,-0.1421162 0.183915,0 0.37619,0.00836 0.560105,0.033439 0.192275,0.025079 0.36783,0.058518 0.543385,0.091957 0.167196,0.041799 0.326032,0.083598 0.476507,0.1337564 0.150476,0.050159 0.267513,0.1003173 0.351111,0.150476 0.117037,0.066878 0.200635,0.1337564 0.250793,0.2089944 0.05016,0.066878 0.07524,0.1588357 0.07524,0.2758725 v 0.3929095 c 0,0.1755552 -0.06688,0.2675128 -0.192275,0.2675128 -0.06688,0 -0.175555,-0.033439 -0.317671,-0.1003173 -0.476507,-0.2173542 -1.011533,-0.3260313 -1.605077,-0.3260313 -0.476507,0 -0.852697,0.075238 -1.11185,0.2340737 -0.259153,0.1588358 -0.392909,0.4012692 -0.392909,0.74402 0,0.2340737 0.0836,0.4347083 0.250793,0.593544 0.167195,0.1588358 0.476507,0.3176715 0.919575,0.4597877 l 1.187088,0.3761898 c 0.601904,0.1922749 1.036612,0.4597877 1.295765,0.8025379 0.259153,0.342751 0.38455,0.73566 0.38455,1.170369 0,0.35947 -0.07524,0.685501 -0.217354,0.969734 -0.150476,0.284232 -0.351111,0.535025 -0.610264,0.73566 -0.259153,0.208994 -0.568464,0.35947 -0.927935,0.468147 -0.37619,0.117037 -0.769099,0.175555 -1.195448,0.175555 z"
       id="path1"
       style="stroke-width:0.0835977;fill:#ffffff" /><g
       id="g3"
       transform="matrix(0.08359775,0,0,0.08359775,0.5220193,5.6217714)">&#10;		<path
   class="st1"
   d="M 273.5,143.7 C 240.6,168 192.8,180.9 151.7,180.9 94.1,180.9 42.2,159.6 3,124.2 c -3.1,-2.8 -0.3,-6.6 3.4,-4.4 42.4,24.6 94.7,39.5 148.8,39.5 36.5,0 76.6,-7.6 113.5,-23.2 5.5,-2.5 10.2,3.6 4.8,7.6 z"
   id="path2" />&#10;		<path
   class="st1"
   d="m 287.2,128.1 c -4.2,-5.4 -27.8,-2.6 -38.5,-1.3 -3.2,0.4 -3.7,-2.4 -0.8,-4.5 18.8,-13.2 49.7,-9.4 53.3,-5 3.6,4.5 -1,35.4 -18.6,50.2 -2.7,2.3 -5.3,1.1 -4.1,-1.9 4,-9.9 12.9,-32.2 8.7,-37.5 z"
   id="path3" />&#10;	</g></g><style
     type="text/css"
     id="style1">&#10;	.st0{fill:#252F3E;}&#10;	.st1{fill-rule:evenodd;clip-rule:evenodd;fill:#FF9900;}&#10;</style><style
     type="text/css"
     id="style1-3">&#10;	.st0{fill:#252F3E;}&#10;	.st1{fill-rule:evenodd;clip-rule:evenodd;fill:#FF9900;}&#10;</style></svg>
