<?xml version="1.0" encoding="UTF-8" standalone="no"?>
<!-- Created with Inkscape (http://www.inkscape.org/) -->

<svg
   width="100"
   height="100"
   viewBox="0 0 26.458333 26.458333"
   version="1.1"
   id="svg1"
   xml:space="preserve"
   inkscape:version="1.3 (0e150ed6c4, 2023-07-21)"
   sodipodi:docname="17 mongodb.svg"
   xmlns:inkscape="http://www.inkscape.org/namespaces/inkscape"
   xmlns:sodipodi="http://sodipodi.sourceforge.net/DTD/sodipodi-0.dtd"
   xmlns="http://www.w3.org/2000/svg"
   xmlns:svg="http://www.w3.org/2000/svg"><sodipodi:namedview
     id="namedview1"
     pagecolor="#505050"
     bordercolor="#eeeeee"
     borderopacity="1"
     inkscape:showpageshadow="0"
     inkscape:pageopacity="0"
     inkscape:pagecheckerboard="0"
     inkscape:deskcolor="#505050"
     inkscape:document-units="mm"
     inkscape:zoom="5.2809764"
     inkscape:cx="51.600306"
     inkscape:cy="44.215308"
     inkscape:window-width="1920"
     inkscape:window-height="947"
     inkscape:window-x="0"
     inkscape:window-y="0"
     inkscape:window-maximized="1"
     inkscape:current-layer="layer1" /><defs
     id="defs1"><linearGradient
   x1="186.33657"
   y1="47.785755"
   x2="76.030266"
   y2="245.27126"
   id="linearGradient-1"
   gradientTransform="scale(0.93681241,1.0674496)"
   gradientUnits="userSpaceOnUse"><stop
     stop-color="#41873F"
     offset="0%"
     id="stop1" /><stop
     stop-color="#418B3D"
     offset="32.88%"
     id="stop2" /><stop
     stop-color="#419637"
     offset="63.52%"
     id="stop3" /><stop
     stop-color="#3FA92D"
     offset="93.19%"
     id="stop4" /><stop
     stop-color="#3FAE2A"
     offset="100%"
     id="stop5" /></linearGradient><path
   d="M134.922587,1.83244962 C130.579003,-0.610816541 125.420997,-0.610816541 121.077412,1.83244962 L6.78685046,67.8006362 C2.44326617,70.2439024 0,74.8589606 0,79.745493 L0,211.95334 C0,216.839873 2.71474019,221.454931 6.78685046,223.898197 L121.077412,289.866385 C125.420997,292.309649 130.579003,292.309649 134.922587,289.866385 L249.213148,223.898197 C253.556733,221.454931 256,216.839873 256,211.95334 L256,79.745493 C256,74.8589606 253.28526,70.2439024 249.213148,67.8006362 L134.922587,1.83244962 L134.922587,1.83244962 Z"
   id="path-2" /><linearGradient
   x1="119.41458"
   y1="149.30798"
   x2="432.34531"
   y2="-48.957201"
   id="linearGradient-4"
   gradientTransform="scale(0.92657495,1.0792435)"
   gradientUnits="userSpaceOnUse"><stop
     stop-color="#41873F"
     offset="13.76%"
     id="stop6" /><stop
     stop-color="#54A044"
     offset="40.32%"
     id="stop7" /><stop
     stop-color="#66B848"
     offset="71.36%"
     id="stop8" /><stop
     stop-color="#6CC04A"
     offset="90.81%"
     id="stop9" /></linearGradient><path
   d="M134.922587,1.83244962 C130.579003,-0.610816541 125.420997,-0.610816541 121.077412,1.83244962 L6.78685046,67.8006362 C2.44326617,70.2439024 0,74.8589606 0,79.745493 L0,211.95334 C0,216.839873 2.71474019,221.454931 6.78685046,223.898197 L121.077412,289.866385 C125.420997,292.309649 130.579003,292.309649 134.922587,289.866385 L249.213148,223.898197 C253.556733,221.454931 256,216.839873 256,211.95334 L256,79.745493 C256,74.8589606 253.28526,70.2439024 249.213148,67.8006362 L134.922587,1.83244962 L134.922587,1.83244962 Z"
   id="path-5" /><linearGradient
   x1="-4.4905091"
   y1="134.80269"
   x2="281.0053"
   y2="134.80269"
   id="linearGradient-7"
   gradientTransform="scale(0.92431102,1.0818869)"
   gradientUnits="userSpaceOnUse"><stop
     stop-color="#6CC04A"
     offset="9.191646%"
     id="stop10" /><stop
     stop-color="#66B848"
     offset="28.64%"
     id="stop11" /><stop
     stop-color="#54A044"
     offset="59.68%"
     id="stop12" /><stop
     stop-color="#41873F"
     offset="86.24%"
     id="stop13" /></linearGradient>&#10;	&#10;	&#10;<linearGradient
   x1="122.89636"
   y1="246.97452"
   x2="154.97651"
   y2="258.53493"
   id="linearGradient-1-2"
   gradientTransform="scale(0.99998778,1.0000122)"
   gradientUnits="userSpaceOnUse"><stop
     stop-color="#000000"
     offset="0%"
     id="stop1-6" /><stop
     stop-color="#000000"
     stop-opacity="0"
     offset="100%"
     id="stop2-1" /></linearGradient></defs><g
     inkscape:label="Camada 1"
     inkscape:groupmode="layer"
     id="layer1"><path
       d="m 15.412403,3.4629737 c -1.054924,-1.251636 -1.96334,-2.52282803 -2.148921,-2.78684603 -0.01954,-0.01956 -0.04885,-0.01956 -0.06838,0 C 13.00951,0.94014567 12.101105,2.2113377 11.04617,3.4629737 1.9913861,15.011241 12.472287,22.804687 12.472287,22.804687 l 0.08791,0.05868 c 0.07814,1.202687 0.273496,2.933509 0.273496,2.933509 h 0.390714 0.390714 c 0,0 0.195362,-1.721043 0.273507,-2.933509 l 0.0879,-0.06846 c 0.0098,0.0098 10.490702,-7.783665 1.435878,-19.3319323 z M 13.224399,22.628641 c 0,0 -0.468848,-0.400896 -0.595836,-0.606184 v -0.01966 L 13.195098,9.4278117 c 0,-0.03912 0.05861,-0.03912 0.05861,0 l 0.566525,12.5749853 v 0.01966 c -0.126978,0.205288 -0.595837,0.606184 -0.595837,0.606184 z"
       fill="#01ec64"
       id="path1"
       style="stroke-width:0.0458452" /></g><style
     type="text/css"
     id="style1">&#10;	.st0{fill:#252F3E;}&#10;	.st1{fill-rule:evenodd;clip-rule:evenodd;fill:#FF9900;}&#10;</style><style
     type="text/css"
     id="style1-3">&#10;	.st0{fill:#252F3E;}&#10;	.st1{fill-rule:evenodd;clip-rule:evenodd;fill:#FF9900;}&#10;</style></svg>
