<?xml version="1.0" encoding="UTF-8" standalone="no"?>
<!-- Created with Inkscape (http://www.inkscape.org/) -->

<svg
   width="100"
   height="100"
   viewBox="0 0 26.458333 26.458333"
   version="1.1"
   id="svg1"
   xml:space="preserve"
   inkscape:version="1.3 (0e150ed6c4, 2023-07-21)"
   sodipodi:docname="21 python.svg"
   xmlns:inkscape="http://www.inkscape.org/namespaces/inkscape"
   xmlns:sodipodi="http://sodipodi.sourceforge.net/DTD/sodipodi-0.dtd"
   xmlns="http://www.w3.org/2000/svg"
   xmlns:svg="http://www.w3.org/2000/svg"><sodipodi:namedview
     id="namedview1"
     pagecolor="#505050"
     bordercolor="#eeeeee"
     borderopacity="1"
     inkscape:showpageshadow="0"
     inkscape:pageopacity="0"
     inkscape:pagecheckerboard="0"
     inkscape:deskcolor="#505050"
     inkscape:document-units="mm"
     inkscape:zoom="4"
     inkscape:cx="8.6250001"
     inkscape:cy="24.875"
     inkscape:window-width="1920"
     inkscape:window-height="947"
     inkscape:window-x="0"
     inkscape:window-y="0"
     inkscape:window-maximized="1"
     inkscape:current-layer="layer1"
     showguides="false" /><defs
     id="defs1"><linearGradient
   x1="186.33657"
   y1="47.785755"
   x2="76.030266"
   y2="245.27126"
   id="linearGradient-1"
   gradientTransform="scale(0.93681241,1.0674496)"
   gradientUnits="userSpaceOnUse"><stop
     stop-color="#41873F"
     offset="0%"
     id="stop1" /><stop
     stop-color="#418B3D"
     offset="32.88%"
     id="stop2" /><stop
     stop-color="#419637"
     offset="63.52%"
     id="stop3" /><stop
     stop-color="#3FA92D"
     offset="93.19%"
     id="stop4" /><stop
     stop-color="#3FAE2A"
     offset="100%"
     id="stop5" /></linearGradient><path
   d="M134.922587,1.83244962 C130.579003,-0.610816541 125.420997,-0.610816541 121.077412,1.83244962 L6.78685046,67.8006362 C2.44326617,70.2439024 0,74.8589606 0,79.745493 L0,211.95334 C0,216.839873 2.71474019,221.454931 6.78685046,223.898197 L121.077412,289.866385 C125.420997,292.309649 130.579003,292.309649 134.922587,289.866385 L249.213148,223.898197 C253.556733,221.454931 256,216.839873 256,211.95334 L256,79.745493 C256,74.8589606 253.28526,70.2439024 249.213148,67.8006362 L134.922587,1.83244962 L134.922587,1.83244962 Z"
   id="path-2" /><linearGradient
   x1="119.41458"
   y1="149.30798"
   x2="432.34531"
   y2="-48.957201"
   id="linearGradient-4"
   gradientTransform="scale(0.92657495,1.0792435)"
   gradientUnits="userSpaceOnUse"><stop
     stop-color="#41873F"
     offset="13.76%"
     id="stop6" /><stop
     stop-color="#54A044"
     offset="40.32%"
     id="stop7" /><stop
     stop-color="#66B848"
     offset="71.36%"
     id="stop8" /><stop
     stop-color="#6CC04A"
     offset="90.81%"
     id="stop9" /></linearGradient><path
   d="M134.922587,1.83244962 C130.579003,-0.610816541 125.420997,-0.610816541 121.077412,1.83244962 L6.78685046,67.8006362 C2.44326617,70.2439024 0,74.8589606 0,79.745493 L0,211.95334 C0,216.839873 2.71474019,221.454931 6.78685046,223.898197 L121.077412,289.866385 C125.420997,292.309649 130.579003,292.309649 134.922587,289.866385 L249.213148,223.898197 C253.556733,221.454931 256,216.839873 256,211.95334 L256,79.745493 C256,74.8589606 253.28526,70.2439024 249.213148,67.8006362 L134.922587,1.83244962 L134.922587,1.83244962 Z"
   id="path-5" /><linearGradient
   x1="-4.4905091"
   y1="134.80269"
   x2="281.0053"
   y2="134.80269"
   id="linearGradient-7"
   gradientTransform="scale(0.92431102,1.0818869)"
   gradientUnits="userSpaceOnUse"><stop
     stop-color="#6CC04A"
     offset="9.191646%"
     id="stop10" /><stop
     stop-color="#66B848"
     offset="28.64%"
     id="stop11" /><stop
     stop-color="#54A044"
     offset="59.68%"
     id="stop12" /><stop
     stop-color="#41873F"
     offset="86.24%"
     id="stop13" /></linearGradient>&#10;	&#10;	&#10;<linearGradient
   x1="122.89636"
   y1="246.97452"
   x2="154.97651"
   y2="258.53493"
   id="linearGradient-1-2"
   gradientTransform="scale(0.99998778,1.0000122)"
   gradientUnits="userSpaceOnUse"><stop
     stop-color="#000000"
     offset="0%"
     id="stop1-6" /><stop
     stop-color="#000000"
     stop-opacity="0"
     offset="100%"
     id="stop2-1" /></linearGradient><linearGradient
   x1="24.714942"
   y1="22.898218"
   x2="151.13554"
   y2="148.33669"
   id="linearGradient-1-3"
   gradientTransform="scale(0.99888681,1.0011144)"
   gradientUnits="userSpaceOnUse"><stop
     stop-color="#387EB8"
     offset="0%"
     id="stop1-67" /><stop
     stop-color="#366994"
     offset="100%"
     id="stop2-5" /></linearGradient><linearGradient
   x1="102.48342"
   y1="103.26588"
   x2="238.25963"
   y2="231.90547"
   id="linearGradient-2"
   gradientTransform="scale(0.99888678,1.0011145)"
   gradientUnits="userSpaceOnUse"><stop
     stop-color="#FFE052"
     offset="0%"
     id="stop3-3" /><stop
     stop-color="#FFC331"
     offset="100%"
     id="stop4-5" /></linearGradient></defs><g
     inkscape:label="Camada 1"
     inkscape:groupmode="layer"
     id="layer1"><g
       id="g5"
       transform="matrix(0.09842211,0,0,0.09842211,0.64723101,0.71978806)"><path
         d="M 126.91587,0.07227555 C 62.083583,0.07228017 66.132129,28.187465 66.132129,28.187465 l 0.07227,29.127047 h 61.867881 v 8.745341 H 41.630717 c 0,0 -41.4861659,-4.704909 -41.4861659,60.711467 -4.63e-6,65.41635 36.2100509,63.09655 36.2100509,63.09655 h 21.610389 v -30.35573 c 0,0 -1.164855,-36.21005 35.631847,-36.21005 h 61.361942 c 0,0 34.47544,0.5573 34.47544,-33.31903 V 33.969509 c 0,-5e-6 5.23432,-33.89723345 -62.51835,-33.89723345 z M 92.801807,19.65895 c 6.1554,-5e-6 11.130433,4.975035 11.130433,11.130434 1e-5,6.1554 -4.975033,11.130435 -11.130433,11.130435 -6.1554,5e-6 -11.130435,-4.975035 -11.130435,-11.130435 -5e-6,-6.155399 4.975035,-11.130434 11.130435,-11.130434 z"
         fill="url(#linearGradient-1)"
         id="path4"
         style="fill:url(#linearGradient-1-3)" /><path
         d="m 128.7571,254.12627 c 64.8323,0 60.78374,-28.11519 60.78374,-28.11519 l -0.0723,-29.12705 h -61.86787 v -8.74534 h 86.44156 c 0,0 41.48617,4.7049 41.48617,-60.71148 2e-5,-65.416353 -36.21005,-63.096551 -36.21005,-63.096551 h -21.61039 v 30.355724 c 0,0 1.16487,36.210047 -35.63185,36.210047 h -61.36195 c 0,0 -34.475435,-0.55729 -34.475435,33.31906 v 56.01355 c 0,0 -5.234323,33.89723 62.518355,33.89723 v 0 z m 34.11406,-19.58667 c -6.1554,0 -11.13043,-4.97504 -11.13043,-11.13044 0,-6.1554 4.97503,-11.13043 11.13043,-11.13043 6.1554,0 11.13043,4.97503 11.13043,11.13043 3e-5,6.1554 -4.97503,11.13044 -11.13043,11.13044 z"
         fill="url(#linearGradient-2)"
         id="path5"
         style="fill:url(#linearGradient-2)" /></g></g><style
     type="text/css"
     id="style1">&#10;	.st0{fill:#252F3E;}&#10;	.st1{fill-rule:evenodd;clip-rule:evenodd;fill:#FF9900;}&#10;</style><style
     type="text/css"
     id="style1-3">&#10;	.st0{fill:#252F3E;}&#10;	.st1{fill-rule:evenodd;clip-rule:evenodd;fill:#FF9900;}&#10;</style><style
     id="style1-1">.st0{fill:#0acf83}.st1{fill:#a259ff}.st2{fill:#f24e1e}.st3{fill:#ff7262}.st4{fill:#1abcfe}</style></svg>
