<?xml version="1.0" encoding="UTF-8" standalone="no"?>
<!-- Created with Inkscape (http://www.inkscape.org/) -->

<svg
   width="100"
   height="100"
   viewBox="0 0 26.458333 26.458333"
   version="1.1"
   id="svg1"
   xml:space="preserve"
   inkscape:version="1.3 (0e150ed6c4, 2023-07-21)"
   sodipodi:docname="3 git.svg"
   xmlns:inkscape="http://www.inkscape.org/namespaces/inkscape"
   xmlns:sodipodi="http://sodipodi.sourceforge.net/DTD/sodipodi-0.dtd"
   xmlns="http://www.w3.org/2000/svg"
   xmlns:svg="http://www.w3.org/2000/svg"><sodipodi:namedview
     id="namedview1"
     pagecolor="#505050"
     bordercolor="#eeeeee"
     borderopacity="1"
     inkscape:showpageshadow="0"
     inkscape:pageopacity="0"
     inkscape:pagecheckerboard="0"
     inkscape:deskcolor="#505050"
     inkscape:document-units="mm"
     inkscape:zoom="7.4684285"
     inkscape:cx="39.834351"
     inkscape:cy="50.546109"
     inkscape:window-width="1920"
     inkscape:window-height="947"
     inkscape:window-x="0"
     inkscape:window-y="0"
     inkscape:window-maximized="1"
     inkscape:current-layer="layer1" /><defs
     id="defs1" /><g
     inkscape:label="Camada 1"
     inkscape:groupmode="layer"
     id="layer1"><path
       d="M 25.322792,12.10946 14.348287,1.1357822 c -0.631558,-0.63211005 -1.656669,-0.63211005 -2.289055,0 l -2.2788521,2.278852 2.8908291,2.890829 c 0.671825,-0.226975 1.442106,-0.07474 1.977689,0.460845 0.538067,0.538893 0.6892,1.315793 0.456709,1.989823 l 2.786029,2.7860288 c 0.67403,-0.232215 1.451757,-0.08191 1.990099,0.45726 0.752355,0.752078 0.752355,1.971069 0,2.7237 -0.752631,0.75263 -1.971622,0.75263 -2.724528,0 -0.565921,-0.566473 -0.705746,-1.397703 -0.4192,-2.094899 l -2.598217,-2.598216 -2.94e-4,6.837381 c 0.1834,0.09101 0.356595,0.212083 0.509383,0.364319 0.752355,0.752079 0.752355,1.97107 0,2.724252 -0.75263,0.752354 -1.972173,0.752354 -2.723701,0 -0.752354,-0.753182 -0.752354,-1.972173 0,-2.724252 0.185882,-0.185607 0.400999,-0.325984 0.630456,-0.420304 V 9.9103122 c -0.229457,-0.09377 -0.444298,-0.233318 -0.630456,-0.420304 -0.570057,-0.56923 -0.707125,-1.405701 -0.415063,-2.105655 L 8.6606739,4.5343402 1.1357479,12.058714 c -0.63238605,0.632662 -0.63238605,1.657773 0,2.289884 L 12.110253,25.322551 c 0.631835,0.63211 1.65667,0.63211 2.289331,0 L 25.322792,14.399619 c 0.632111,-0.632387 0.632111,-1.658049 0,-2.290159"
       fill="#de4c36"
       id="path1"
       style="stroke-width:0.0981851" /></g></svg>
