<?xml version="1.0" encoding="UTF-8" standalone="no"?>
<!-- Created with Inkscape (http://www.inkscape.org/) -->

<svg
   width="100"
   height="100"
   viewBox="0 0 26.458333 26.458333"
   version="1.1"
   id="svg1"
   xml:space="preserve"
   inkscape:version="1.3 (0e150ed6c4, 2023-07-21)"
   sodipodi:docname="4 bash.svg"
   xmlns:inkscape="http://www.inkscape.org/namespaces/inkscape"
   xmlns:sodipodi="http://sodipodi.sourceforge.net/DTD/sodipodi-0.dtd"
   xmlns="http://www.w3.org/2000/svg"
   xmlns:svg="http://www.w3.org/2000/svg"><sodipodi:namedview
     id="namedview1"
     pagecolor="#505050"
     bordercolor="#eeeeee"
     borderopacity="1"
     inkscape:showpageshadow="0"
     inkscape:pageopacity="0"
     inkscape:pagecheckerboard="0"
     inkscape:deskcolor="#505050"
     inkscape:document-units="mm"
     inkscape:zoom="3.7342142"
     inkscape:cx="44.052106"
     inkscape:cy="30.394614"
     inkscape:window-width="1920"
     inkscape:window-height="947"
     inkscape:window-x="0"
     inkscape:window-y="0"
     inkscape:window-maximized="1"
     inkscape:current-layer="layer1" /><defs
     id="defs1" /><g
     inkscape:label="Camada 1"
     inkscape:groupmode="layer"
     id="layer1"><g
       id="g1"><path
         d="M 22.650585,5.7829755 14.733288,1.0823777 c -0.941005,-0.56122559 -2.113987,-0.56122559 -3.054992,0 L 3.7594135,5.7829755 C 2.8068778,6.3576114 2.226936,7.3910278 2.2326674,8.5034565 v 9.3996105 c -0.00517,1.111864 0.5746974,2.14455 1.5267461,2.718895 l 7.9172975,4.699013 c 0.9411,0.560878 2.113892,0.560878 3.054992,0 L 22.649,20.621962 c 0.953144,-0.574243 1.533728,-1.607732 1.528331,-2.720481 V 8.5034565 c 0.0057,-1.1124287 -0.57421,-2.1458451 -1.526746,-2.720481 z"
         fill="#ffffff"
         id="path1-5"
         style="stroke-width:0.0981852" /><path
         d="M 22.695557,5.7942561 14.760822,1.0833048 c -0.943077,-0.56246173 -2.118644,-0.56246173 -3.061721,0 L 3.7627765,5.7942561 c -0.9546339,0.5759016 -1.535853,1.6115942 -1.530109,2.726473 v 9.4203139 c -0.00518,1.114313 0.5759632,2.149273 1.530109,2.724884 l 7.9347355,4.709362 c 0.943173,0.562114 2.118548,0.562114 3.061721,0 l 7.934736,-4.709362 c 0.955243,-0.575508 1.537107,-1.611273 1.531697,-2.726473 V 8.5207291 C 24.23141,7.4058503 23.650191,6.3701577 22.695557,5.7942561 Z M 11.975561,24.893866 4.0408258,20.184505 C 3.2567063,19.709356 2.7791104,18.857885 2.7824328,17.941043 V 8.5207291 C 2.7787944,7.6038056 3.2564715,6.7521892 4.0408258,6.2772676 L 11.975561,1.5663164 c 0.772245,-0.4607093 1.734968,-0.4607093 2.507211,0 l 7.928381,4.7109512 c 0.653584,0.3958666 1.099437,1.0597058 1.21865,1.814471 C 23.366053,7.5308732 22.773411,7.3767545 22.08226,7.7739679 l -7.500979,4.6458081 c -0.935834,0.544977 -1.625397,1.159864 -1.626986,2.287949 v 9.250307 c 0,0.675263 0.271694,1.112198 0.691152,1.240895 -0.137362,0.02517 -0.276636,0.03846 -0.41628,0.03972 -0.441241,-2.95e-4 -0.874258,-0.119417 -1.253606,-0.344782 z"
         fill="#2f3a3e"
         id="path2"
         style="stroke-width:0.0981852" /><path
         d="m 20.59398,18.8316 -1.97219,1.179508 c -0.05282,0.02123 -0.08822,0.07153 -0.09037,0.128415 v 0.518413 c 0,0.06341 0.0428,0.08878 0.09512,0.05866 l 2.002312,-1.217558 c 0.04903,-0.03676 0.07249,-0.09849 0.06024,-0.158537 v -0.454998 c -0.0016,-0.05866 -0.04756,-0.08403 -0.09512,-0.0539 z"
         fill="#3ab14a"
         id="path3"
         style="stroke-width:0.0981852" /><path
         d="m 16.397115,14.489067 c 0.06341,-0.03171 0.115732,0 0.117316,0.09037 l 0.0063,0.688047 c 0.237165,-0.107744 0.501753,-0.13985 0.757804,-0.09195 0.04914,0.01268 0.06976,0.07927 0.05073,0.158536 L 17.1787,15.938087 c -0.01142,0.04559 -0.03498,0.08722 -0.06817,0.120487 -0.01166,0.0115 -0.02503,0.02113 -0.03963,0.02854 -0.01792,0.0097 -0.03859,0.01305 -0.05866,0.0095 -0.249671,-0.05529 -0.511028,-0.01334 -0.730851,0.117317 -0.321426,0.144793 -0.531531,0.460874 -0.540609,0.81329 0,0.317073 0.158536,0.404268 0.711827,0.41378 0.730853,0.01268 1.047925,0.331341 1.055852,1.068534 -0.0174,0.769489 -0.372201,1.492422 -0.970242,1.976946 l 0.01268,0.675364 c -0.0011,0.08388 -0.0447,0.161472 -0.115731,0.206098 l -0.399511,0.229877 c -0.06342,0.03171 -0.115732,0 -0.117318,-0.08878 v -0.664268 c -0.342437,0.142683 -0.689632,0.175976 -0.911582,0.0872 -0.04122,-0.01585 -0.06024,-0.07768 -0.04281,-0.149024 l 0.144269,-0.610364 c 0.01097,-0.0483 0.03576,-0.09237 0.07134,-0.126829 0.01129,-0.01081 0.02411,-0.01989 0.03805,-0.02695 0.02067,-0.0093 0.04433,-0.0093 0.065,0 0.282618,0.07662 0.584066,0.03845 0.838657,-0.106219 0.367387,-0.177186 0.606145,-0.543566 0.619876,-0.951217 0,-0.342438 -0.188658,-0.48512 -0.634144,-0.488292 -0.575487,0 -1.109754,-0.110975 -1.120851,-0.951216 0.01324,-0.73406 0.354015,-1.423747 0.929022,-1.880239 l -0.02854,-0.691218 c -2.94e-4,-0.08509 0.04353,-0.164254 0.115732,-0.209268 z"
         fill="#ffffff"
         id="path4"
         style="stroke-width:0.0981852" /></g></g></svg>
