<?xml version="1.0" encoding="UTF-8" standalone="no"?>
<!-- Created with Inkscape (http://www.inkscape.org/) -->

<svg
   width="100"
   height="100"
   viewBox="0 0 26.458333 26.458333"
   version="1.1"
   id="svg1"
   xml:space="preserve"
   inkscape:version="1.3 (0e150ed6c4, 2023-07-21)"
   sodipodi:docname="5 html.svg"
   xmlns:inkscape="http://www.inkscape.org/namespaces/inkscape"
   xmlns:sodipodi="http://sodipodi.sourceforge.net/DTD/sodipodi-0.dtd"
   xmlns="http://www.w3.org/2000/svg"
   xmlns:svg="http://www.w3.org/2000/svg"><sodipodi:namedview
     id="namedview1"
     pagecolor="#505050"
     bordercolor="#eeeeee"
     borderopacity="1"
     inkscape:showpageshadow="0"
     inkscape:pageopacity="0"
     inkscape:pagecheckerboard="0"
     inkscape:deskcolor="#505050"
     inkscape:document-units="mm"
     inkscape:zoom="5.2809764"
     inkscape:cx="19.030572"
     inkscape:cy="54.251331"
     inkscape:window-width="1920"
     inkscape:window-height="947"
     inkscape:window-x="0"
     inkscape:window-y="0"
     inkscape:window-maximized="1"
     inkscape:current-layer="layer1" /><defs
     id="defs1" /><g
     inkscape:label="Camada 1"
     inkscape:groupmode="layer"
     id="layer1"><g
       id="g1"
       transform="matrix(0.01399497,0,0,0.01399497,-0.76580333,-0.76580333)"><g
         id="Logo_artwork">&#10;</g><g
         id="Guides_to_delete">&#10;	<g
   id="g6">&#10;		<polygon
   fill="#e34e26"
   points="208.627,101.984 1791.373,101.984 1647.093,1718.528 999.615,1898.016 352.732,1718.4 "
   id="polygon1" />&#10;		<polygon
   fill="#ef662a"
   points="1523.565,1615.585 1646.918,234.108 1000,234.108 1000,1760.716 "
   id="polygon2" />&#10;		<polygon
   fill="#ffffff"
   points="764.155,1124.017 565.155,1124.017 593.611,1442.302 999.697,1555.086 1406.296,1442.302 1460.806,833.669 738.229,833.669 720.086,630.648 1478.168,630.648 1478.773,630.648 1496.532,432.378 503.468,432.378 556.906,1031.897 1244.048,1031.897 1220.988,1289.041 999.744,1348.857 778.919,1289.128 "
   id="polygon3" />&#10;		<g
   id="g5">&#10;			<polygon
   fill="#ebebeb"
   points="720.086,630.648 1000,630.648 1000,432.378 503.468,432.378 556.906,1031.897 1000,1031.897 1000,833.669 738.229,833.669 "
   id="polygon4" />&#10;			<polygon
   fill="#ebebeb"
   points="999.697,1555.086 1000,1555.001 1000,1348.771 999.744,1348.857 778.919,1289.128 764.155,1124.017 565.155,1124.017 593.611,1442.302 "
   id="polygon5" />&#10;		</g>&#10;	</g>&#10;</g></g></g></svg>
