<?xml version="1.0" encoding="UTF-8" standalone="no"?>
<!-- Created with Inkscape (http://www.inkscape.org/) -->

<svg
   width="100"
   height="100"
   viewBox="0 0 26.458333 26.458333"
   version="1.1"
   id="svg1"
   xml:space="preserve"
   inkscape:version="1.3 (0e150ed6c4, 2023-07-21)"
   sodipodi:docname="8 typescript.svg"
   xmlns:inkscape="http://www.inkscape.org/namespaces/inkscape"
   xmlns:sodipodi="http://sodipodi.sourceforge.net/DTD/sodipodi-0.dtd"
   xmlns="http://www.w3.org/2000/svg"
   xmlns:svg="http://www.w3.org/2000/svg"><sodipodi:namedview
     id="namedview1"
     pagecolor="#505050"
     bordercolor="#eeeeee"
     borderopacity="1"
     inkscape:showpageshadow="0"
     inkscape:pageopacity="0"
     inkscape:pagecheckerboard="0"
     inkscape:deskcolor="#505050"
     inkscape:document-units="mm"
     inkscape:zoom="2.6404882"
     inkscape:cx="26.32089"
     inkscape:cy="36.546272"
     inkscape:window-width="1920"
     inkscape:window-height="947"
     inkscape:window-x="0"
     inkscape:window-y="0"
     inkscape:window-maximized="1"
     inkscape:current-layer="layer1" /><defs
     id="defs1" /><g
     inkscape:label="Camada 1"
     inkscape:groupmode="layer"
     id="layer1"><rect
       style="fill:#007acc;fill-opacity:1;stroke:none;stroke-width:2.49552;stroke-linecap:round;stroke-linejoin:round"
       id="rect1"
       width="25.135416"
       height="25.135416"
       x="0.66145867"
       y="0.66145867"
       ry="2.0929554" /><path
       d="m 20.943249,12.257952 c 0.63836,0.15959 1.125109,0.442862 1.571961,0.905673 0.231406,0.247365 0.574524,0.698206 0.602452,0.80593 0.008,0.03192 -1.085212,0.766031 -1.74751,1.176975 -0.02394,0.01596 -0.119692,-0.08777 -0.227415,-0.247365 -0.32317,-0.47079 -0.662299,-0.674267 -1.180966,-0.710174 -0.762042,-0.05187 -1.252781,0.347108 -1.248792,1.013396 0,0.195497 0.02793,0.3112 0.107723,0.47079 0.16757,0.347108 0.47877,0.554575 1.456259,0.977488 1.799377,0.774012 2.569398,1.2847 3.048168,2.010833 0.534626,0.809919 0.654319,2.102599 0.291252,3.064127 -0.398975,1.045315 -1.388433,1.75549 -2.780855,1.990885 -0.430893,0.0758 -1.452268,0.06384 -1.915079,-0.01995 -1.009407,-0.179538 -1.966947,-0.678256 -2.55743,-1.332575 -0.231405,-0.255345 -0.682247,-0.921633 -0.654318,-0.96951 0.01197,-0.01596 0.115703,-0.07979 0.231405,-0.14762 0.111713,-0.06384 0.534626,-0.307211 0.933601,-0.538616 l 0.722145,-0.418924 0.15161,0.223426 c 0.211457,0.32317 0.674268,0.766032 0.953551,0.913652 0.801938,0.422915 1.903109,0.363068 2.445715,-0.123682 0.231406,-0.211456 0.32716,-0.430892 0.32716,-0.754062 0,-0.291252 -0.03591,-0.418924 -0.187519,-0.63836 -0.195498,-0.279282 -0.594472,-0.514677 -1.727561,-1.005417 -1.296669,-0.558565 -1.855233,-0.905672 -2.36592,-1.456258 -0.295242,-0.31918 -0.574524,-0.829868 -0.690228,-1.25677 -0.09575,-0.355088 -0.119692,-1.244802 -0.04389,-1.603879 0.267314,-1.252782 1.212885,-2.126536 2.577378,-2.38587 0.442863,-0.08379 1.472217,-0.05187 1.9071,0.05586 z"
       fill="#ffffff"
       id="path2-3"
       style="stroke-width:0.0981851" /><path
       d="m 6.2198371,13.312538 -0.00798,1.029356 h 1.6358002 1.6357961 v 4.648056 4.648057 h 1.1570276 1.157027 V 18.98995 14.341894 h 1.635797 1.635797 v -1.009407 c 0,-0.558565 -0.01197,-1.025365 -0.02793,-1.037335 -0.01197,-0.01596 -2.002853,-0.02394 -4.416651,-0.01995 l -4.3927142,0.01197 z"
       fill="#ffffff"
       id="path1"
       style="stroke-width:0.0981851" /></g></svg>
