<?xml version="1.0" encoding="UTF-8" standalone="no"?>
<!-- Created with Inkscape (http://www.inkscape.org/) -->

<svg
   width="100"
   height="100"
   viewBox="0 0 26.458333 26.458333"
   version="1.1"
   id="svg1"
   xml:space="preserve"
   inkscape:version="1.3 (0e150ed6c4, 2023-07-21)"
   sodipodi:docname="9 react.svg"
   xmlns:inkscape="http://www.inkscape.org/namespaces/inkscape"
   xmlns:sodipodi="http://sodipodi.sourceforge.net/DTD/sodipodi-0.dtd"
   xmlns="http://www.w3.org/2000/svg"
   xmlns:svg="http://www.w3.org/2000/svg"><sodipodi:namedview
     id="namedview1"
     pagecolor="#505050"
     bordercolor="#eeeeee"
     borderopacity="1"
     inkscape:showpageshadow="0"
     inkscape:pageopacity="0"
     inkscape:pagecheckerboard="0"
     inkscape:deskcolor="#505050"
     inkscape:document-units="mm"
     inkscape:zoom="2.6404882"
     inkscape:cx="50.93755"
     inkscape:cy="54.34601"
     inkscape:window-width="1920"
     inkscape:window-height="947"
     inkscape:window-x="0"
     inkscape:window-y="0"
     inkscape:window-maximized="1"
     inkscape:current-layer="layer1" /><defs
     id="defs1" /><g
     inkscape:label="Camada 1"
     inkscape:groupmode="layer"
     id="layer1"><g
       id="g6"><circle
         style="fill:#ffffff;fill-opacity:1;stroke:none;stroke-width:2.16733;stroke-linecap:round;stroke-linejoin:round"
         id="path5"
         cx="13.229167"
         cy="13.229167"
         r="12.567708" /><g
         id="g5"
         transform="matrix(0.39616492,0,0,0.39616492,-12.685705,5.9953722)"><path
           id="path2"
           style="fill:#53c1de;fill-opacity:1;stroke-width:0.264583"
           d="m 77.621102,-8.3359253 c -2.991759,-0.021195 -6.826793,1.8745953 -10.690304,5.2368897 -0.495363,0.431088 -0.992265,0.8874717 -1.488798,1.3658081 -0.330844,-0.3164787 -0.661176,-0.6226544 -0.990637,-0.9151897 -5.398762,-4.7935784 -10.81022,-6.8136165 -14.059607,-4.9325154 -3.115837,1.8037374 -4.038319,7.1593539 -2.726965,13.8611694 0.126635,0.6473237 0.274442,1.3086394 0.441833,1.9807577 -0.76587,0.2174063 -1.505336,0.4490009 -2.212784,0.6955647 -6.329469,2.2067318 -10.37146,5.6653058 -10.37146,9.2526648 0,3.705061 4.338999,7.421522 10.931632,9.674862 0.520264,0.177822 1.0601,0.345772 1.616439,0.505396 -0.180587,0.726923 -0.337374,1.439452 -0.469222,2.134236 -1.250379,6.585505 -0.274117,11.814569 2.833419,13.606922 3.209801,1.850986 8.597042,-0.05171 13.842566,-4.636927 0.414593,-0.362449 0.830639,-0.746914 1.247469,-1.1498 0.540271,0.520263 1.079376,1.012488 1.615922,1.474328 5.0809,4.37228 10.099183,6.138174 13.203845,4.340821 3.20661,-1.856306 4.248912,-7.473763 2.895947,-14.308171 -0.10333,-0.521967 -0.223593,-1.055117 -0.358634,-1.597835 0.378306,-0.111842 0.749945,-0.22723 1.112077,-0.347266 6.85367,-2.270793 11.312487,-5.942023 11.312487,-9.696566 0,-3.600343 -4.172372,-7.082058 -10.629325,-9.304858 C 84.056814,8.6908972 83.414262,8.4887 82.752572,8.2976847 82.861329,7.8538269 82.96096,7.4157657 83.049711,6.9851034 84.506535,-0.08650479 83.554139,-5.78329 80.301558,-7.658964 79.521854,-8.1085949 78.618355,-8.3288603 77.621102,-8.3359253 Z m 0.123507,2.552299 c 0.497405,0.0222 0.928651,0.1342274 1.281058,0.3374471 2.001989,1.1544984 2.780733,5.81049731 1.522905,11.9160685 -0.08024,0.3895858 -0.170605,0.7864147 -0.268718,1.188558 -2.480325,-0.5723012 -5.17393,-0.9984238 -7.993827,-1.262972 -1.64273,-2.3393249 -3.344731,-4.4659131 -5.053438,-6.3071086 0.459393,-0.44194236 0.917751,-0.86323157 1.374593,-1.2609049 3.58611,-3.1208583 6.982004,-4.7072883 9.137427,-4.6110881 z m -24.707019,0.05581 c 2.300826,-0.094143 5.930356,1.6264069 9.717753,4.98935958 0.29796,0.26454814 0.597119,0.5413868 0.897102,0.82785645 C 61.915429,1.9545392 60.199272,4.0779662 58.559733,6.3918579 55.748031,6.6524687 53.056504,7.0709804 50.581925,7.6315755 50.426346,7.0057476 50.288687,6.3909671 50.171098,5.7898275 49.047566,0.04787702 49.793569,-4.2832901 51.671265,-5.3702148 c 0.375013,-0.217107 0.835365,-0.3358756 1.366325,-0.3576015 z m 12.405444,7.6424276 c 1.178017,1.2762373 2.357779,2.7012861 3.518131,4.247286 -1.16929,-0.05523 -2.353,-0.084233 -3.546553,-0.084233 -1.182274,0 -2.357628,0.02841 -3.519682,0.082682 1.161522,-1.5316338 2.351678,-2.9548128 3.548104,-4.245735 z m -0.02894,6.7174194 h 5.17e-4 c 1.85088,0 3.67596,0.070616 5.453414,0.206189 0.988596,1.4592713 1.954084,2.9979733 2.880961,4.5992033 0.93741,1.619211 1.798356,3.223258 2.577103,4.796605 -0.776406,1.600379 -1.635574,3.221029 -2.568835,4.839498 -0.934539,1.620383 -1.894024,3.166985 -2.868042,4.627108 -1.774048,0.126847 -3.606589,0.192236 -5.474601,0.192236 -1.860456,0 -3.670451,-0.05741 -5.413106,-0.170532 -1.013285,-1.479279 -1.993723,-3.030862 -2.922303,-4.634859 h 5.17e-4 c -0.926132,-1.599633 -1.778387,-3.212657 -2.550749,-4.816761 0.77205,-1.607621 1.621805,-3.222782 2.542481,-4.819343 l 5.17e-4,-5.16e-4 C 57.995119,11.850063 58.966708,10.3065 59.9705,8.8366699 61.748485,8.7022679 63.571515,8.6320313 65.414095,8.6320312 Z M 56.69163,9.163265 c -0.62785,0.979339 -1.239926,1.984263 -1.832446,3.011702 v 5.17e-4 c -0.590924,1.024672 -1.153974,2.056928 -1.687753,3.091284 -0.743735,-1.763832 -1.379893,-3.498048 -1.899625,-5.17281 1.705729,-0.3817113 3.524463,-0.6941322 5.419824,-0.930693 z m 17.449581,0.00465 c 1.907493,0.2411367 3.735083,0.561199 5.451347,0.952913 -0.515263,1.651351 -1.157603,3.378002 -1.913579,5.148006 -0.542289,-1.029568 -1.115777,-2.06752 -1.719791,-3.110921 -0.591561,-1.021799 -1.198856,-2.019598 -1.817977,-2.989998 z m -25.34884,1.552877 c 0.748098,2.433502 1.72974,4.977643 2.914034,7.550443 -1.199618,2.611004 -2.195283,5.195908 -2.950725,7.657931 -0.508664,-0.146214 -1.001175,-0.300024 -1.475362,-0.461988 -2.915137,-0.996365 -5.32252,-2.291078 -6.972701,-3.704166 -1.482789,-1.269851 -2.231388,-2.530818 -2.231388,-3.553789 0,-2.176933 3.245365,-4.953652 8.658386,-6.840926 0.656794,-0.229004 1.344242,-0.444784 2.057756,-0.647505 z m 33.276005,0.03772 c 0.611567,0.176968 1.205172,0.363715 1.777152,0.56069 5.532314,1.904512 8.90695,4.720321 8.90695,6.890018 0,2.311126 -3.644566,5.311102 -9.562207,7.271908 -0.326909,0.108225 -0.662266,0.213295 -1.004073,0.314709 -0.756612,-2.395299 -1.777572,-4.942673 -3.027205,-7.574214 1.192488,-2.568864 2.173947,-5.083348 2.909383,-7.463111 z m -4.365109,10.423137 c 0.799071,1.821297 1.472788,3.583495 2.00763,5.25911 -1.733398,0.395438 -3.604529,0.714177 -5.576404,0.950847 0.620614,-0.98349 1.233038,-1.998366 1.83503,-3.042192 0.609016,-1.056064 1.186984,-2.113828 1.733744,-3.167765 z m -24.528735,0.09198 c 0.535162,1.033612 1.099929,2.066443 1.69447,3.093351 h 5.17e-4 c 0.605609,1.046167 1.232864,2.070751 1.876888,3.070097 -1.958252,-0.218472 -3.804438,-0.514556 -5.509741,-0.885734 0.528032,-1.704664 1.178381,-3.475893 1.937866,-5.277714 z m 27.23658,7.626925 c 0.121952,0.491957 0.230686,0.974684 0.324012,1.446423 0.598264,3.022084 0.68361,5.754508 0.287321,7.890474 -0.356066,1.919304 -1.072128,3.198907 -1.957504,3.711402 -1.884082,1.090543 -5.913036,-0.327204 -10.258288,-4.066419 -0.498128,-0.42864 -0.999925,-0.886055 -1.503268,-1.370459 1.684553,-1.842366 3.367908,-3.984222 5.011064,-6.362919 2.89013,-0.256461 5.620489,-0.676096 8.096663,-1.248502 z m -29.864327,0.114721 c 2.449039,0.541549 5.159827,0.93096 8.056873,1.165821 1.654226,2.327618 3.386352,4.467365 5.131987,6.340698 -0.381392,0.368196 -0.761177,0.718718 -1.138949,1.049031 -2.319534,2.027529 -4.644122,3.46589 -6.692615,4.189409 -1.84077,0.650088 -3.306799,0.668617 -4.193025,0.157613 -1.885784,-1.087672 -2.669786,-5.286281 -1.60042,-10.918197 0.122484,-0.644984 0.26812,-1.307148 0.436149,-1.984375 z m 18.476392,1.351339 c -1.164182,1.581968 -2.339829,3.028894 -3.509863,4.317049 -1.210473,-1.306033 -2.417494,-2.750666 -3.59668,-4.304647 1.144708,0.0449 2.311873,0.06821 3.497978,0.06821 1.218561,0 2.422886,-0.02783 3.608565,-0.08062 z" /><path
           d="m 65.414363,12.870728 c 2.948342,0 5.338535,2.390086 5.338535,5.338534 0,2.948342 -2.390193,5.338538 -5.338535,5.338538 -2.948342,0 -5.338535,-2.390196 -5.338535,-5.338538 0,-2.948448 2.390193,-5.338534 5.338535,-5.338534"
           fill="#53c1de"
           id="path4"
           style="stroke-width:0.264583" /></g></g></g></svg>
